<svg xmlns="http://www.w3.org/2000/svg" viewBox="0 0 106.2 89.39"><title>home</title><g fill="#ddd" id="Layer_2" data-name="Layer 2"><g fill="#ddd" id="Layer_1-2" data-name="Layer 1"><path fill="#ddd" d="M103.19,44.35H96.1a3.21,3.21,0,0,0-3,3.38V86a3.2,3.2,0,0,1-3,3.38h-24a3.2,3.2,0,0,1-3-3.38V59a3.21,3.21,0,0,0-3-3.38h-14a3.21,3.21,0,0,0-3,3.38V86a3.2,3.2,0,0,1-3,3.38h-24a3.2,3.2,0,0,1-3-3.38V47.73a3.21,3.21,0,0,0-3-3.38H3c-3,0-4.14-4.33-1.67-6.19L51.44.57a2.7,2.7,0,0,1,3.32,0l50.1,37.59C107.33,40,106.16,44.35,103.19,44.35Z" style="fill:#fff"/></g></g></svg>
